<?xml version="1.0" encoding="UTF-8"?>
<svg id="Capa_2" data-name="Capa 2" xmlns="http://www.w3.org/2000/svg" viewBox="0 0 48 48">
  <defs>
    <style>
      .cls-1 {
        fill: #19242d;
        fill-rule: evenodd;
      }

      .cls-1, .cls-2 {
        stroke-width: 0px;
      }

      .cls-2 {
        fill: #fff;
      }
    </style>
  </defs>
  <g id="Footer">
    <g>
      <rect class="cls-2" x="11.2" y="10.12" width="26.97" height="29.11"/>
      <path class="cls-1" d="m0,24C0,10.75,10.75,0,24,0s24,10.75,24,24-10.75,24-24,24S0,37.25,0,24Zm24-12.8c-3.48,0-3.91.02-5.28.08-1.36.06-2.29.28-3.11.59-.84.33-1.56.76-2.27,1.48-.71.71-1.15,1.43-1.48,2.27-.32.81-.53,1.74-.59,3.11-.06,1.37-.08,1.8-.08,5.28s.02,3.91.08,5.28c.06,1.36.28,2.29.59,3.11.33.84.76,1.56,1.48,2.27.71.71,1.43,1.15,2.27,1.48.81.32,1.74.53,3.11.59,1.37.06,1.8.08,5.28.08s3.91-.02,5.28-.08c1.36-.06,2.29-.28,3.11-.59.84-.33,1.55-.77,2.27-1.48.71-.71,1.15-1.43,1.48-2.27.31-.81.53-1.74.59-3.11.06-1.37.08-1.8.08-5.28s-.02-3.91-.08-5.28c-.06-1.36-.28-2.29-.59-3.11-.33-.84-.77-1.56-1.48-2.27-.71-.71-1.42-1.15-2.27-1.48-.82-.32-1.75-.53-3.11-.59-1.37-.06-1.8-.08-5.28-.08h0Z"/>
      <path class="cls-1" d="m22.85,13.51c.34,0,.72,0,1.15,0,3.42,0,3.82.01,5.17.07,1.25.06,1.93.27,2.38.44.6.23,1.02.51,1.47.96.45.45.73.87.96,1.47.18.45.38,1.13.44,2.38.06,1.35.07,1.75.07,5.17s-.01,3.82-.07,5.17c-.06,1.25-.27,1.93-.44,2.38-.23.6-.51,1.02-.96,1.47-.45.45-.87.73-1.47.96-.45.18-1.13.38-2.38.44-1.35.06-1.75.07-5.17.07s-3.82-.01-5.17-.07c-1.25-.06-1.93-.27-2.38-.44-.6-.23-1.02-.51-1.47-.96-.45-.45-.73-.87-.96-1.47-.18-.45-.38-1.13-.44-2.38-.06-1.35-.07-1.75-.07-5.17s.01-3.82.07-5.17c.06-1.25.27-1.93.44-2.38.23-.6.51-1.02.96-1.47.45-.45.87-.73,1.47-.96.45-.18,1.13-.38,2.38-.44,1.18-.05,1.64-.07,4.02-.07h0Zm7.98,2.13c-.85,0-1.54.69-1.54,1.54s.69,1.54,1.54,1.54,1.54-.69,1.54-1.54-.69-1.54-1.54-1.54Zm-6.83,1.79c-3.63,0-6.57,2.94-6.57,6.57s2.94,6.57,6.57,6.57,6.57-2.94,6.57-6.57-2.94-6.57-6.57-6.57Z"/>
      <path class="cls-1" d="m24,19.73c2.36,0,4.27,1.91,4.27,4.27s-1.91,4.27-4.27,4.27-4.27-1.91-4.27-4.27,1.91-4.27,4.27-4.27Z"/>
    </g>
  </g>
</svg>