<?xml version="1.0" encoding="UTF-8"?>
<svg id="WorkSpace" xmlns="http://www.w3.org/2000/svg" viewBox="0 0 5372.18 3364.64">
  <defs>
    <style>
      .cls-1, .cls-2 {
        stroke-width: 0px;
      }

      .cls-2 {
        fill: #fff;
      }
    </style>
  </defs>
  <g>
    <path class="cls-1" d="m852.21,1789.3l-2.69,3.59v3.18l2.28,2,2.8,1.07.84,1.42,1.57.48h1.93l1.52-1.11.45-1.52,2.56-.07,1,.52.56,1.42.82,1h2l.93-.76,1.31-.76,4.49-2.14,1.08-1.74.57-2.53-.38-1.52-2.14-2.24-1.49-.79s-1.76.55-1.86.76-2.18,1.86-2.18,1.86l-10.91.22-1.42-1.49-2.57-1.76-1.09.93Z"/>
    <path class="cls-2" d="m877.05,1795.57c-.23-2.58-.24-2.65-.41-3.23-.2-.7-.41-1.18-.67-1.57-.22-.33-.8-.86-1.48-1.33l-.26-.19-.03-.13c-.01-.07-.06-.28-.11-.45-.22-.9-.48-1.3-.97-1.54-.32-.16-.81-.28-1.42-.37-.33-.05-1.01-.04-1.27.01-.24.05-.53.15-.68.23-.23.13-.5.43-.78.85-.18.26-.23.39-.31.7-.07.25-.18.88-.18,1v.07h-12.18v-.07c0-.25-.19-1.13-.29-1.36-.08-.18-.41-.65-.59-.85-.29-.31-.56-.46-1.02-.56-.25-.05-.85-.08-1.14-.04-.28.03-.63.09-.9.15-.58.14-.89.28-1.16.56-.19.21-.43.8-.57,1.45-.04.18-.07.34-.08.34,0,0-.13.09-.28.2-.74.53-1.29,1.04-1.53,1.42-.24.4-.45.92-.64,1.6-.14.5-.13.47-.37,3.1-.22,2.38-.27,3.33-.27,4.97,0,1.27.03,2.05.09,2.58.08.65.31,1.15.73,1.59.55.57,1.11.9,1.83,1.05.34.07.97.07,1.23,0,.38-.1.75-.32,1.17-.68.57-.49,1-1.14,1.67-2.5.16-.33.35-.7.41-.84.08-.17.17-.29.26-.4.08-.08.19-.23.26-.32l.13-.17.24.19c.54.44.8.56,1.42.7.29.06.86.07,1.14.02.64-.11,1.19-.32,1.66-.63.4-.27.64-.57.96-1.22l.17-.34h3.1l.17.34c.32.65.56.96.96,1.22.46.31,1.02.52,1.66.63.28.05.85.04,1.14-.02.62-.13.88-.26,1.42-.7l.24-.19.13.17c.07.09.18.23.25.31.15.16.19.24.61,1.11.71,1.46,1.12,2.1,1.69,2.61.41.37.82.61,1.21.71.27.07.9.07,1.24,0,.72-.16,1.29-.48,1.83-1.05.41-.44.65-.94.73-1.59.07-.53.09-1.31.09-2.58,0-1.64-.05-2.59-.27-4.97Zm-25.1-5.03h1.77v1.3l-.13.16c-.21.26-.55.59-.66.64l-.1.05-.1-.05c-.12-.06-.38-.31-.62-.59l-.17-.2v-1.31Zm-.4,3.55h-1.32v-.87c0-.48,0-.88.02-.89,0,0,.3-.02.65-.02h.64l.17.14c.38.3.67.63.67.76,0,.11-.27.41-.65.73l-.17.14Zm2.17,1.13v.65h-1.76v-.66s-.01-.66-.01-.66l.15-.18c.23-.28.38-.42.53-.54.15-.12.22-.13.33-.06.13.08.3.25.53.51l.23.27v.65Zm1.07-1.14h-.65s-.13-.09-.13-.09c-.21-.16-.56-.51-.64-.62-.03-.06-.07-.13-.07-.17,0-.13.32-.48.72-.79l.12-.1h.65s.64.01.64.01v1.75h-.65Zm4.79,5.07c-.15.54-.46.96-.9,1.25-.37.24-.72.34-1.18.34-.44,0-.8-.11-1.16-.34-.82-.54-1.17-1.55-.85-2.48.1-.31.24-.53.5-.79.33-.33.65-.51,1.08-.6.21-.05.64-.05.86,0,.51.1,1,.42,1.3.84.14.19.28.49.34.72.08.28.08.79,0,1.06Zm8.08,1.54c-.29.07-.71.07-.99,0-.5-.12-.96-.44-1.25-.85-.19-.28-.29-.52-.35-.84-.04-.19-.03-.62,0-.83.18-.83.82-1.46,1.67-1.65.18-.04.64-.04.83,0,.71.15,1.28.61,1.55,1.25.52,1.22-.18,2.6-1.46,2.92Zm2.67-7.03c-.08.24-.21.42-.41.56-.2.14-.36.19-.62.2-.26,0-.43-.05-.63-.18-.56-.38-.64-1.19-.15-1.67.15-.15.31-.24.49-.29.18-.05.48-.03.66.03.3.11.56.39.66.69.06.18.06.49,0,.67Zm2.36,2.79c-.23.21-.46.29-.81.28-.21,0-.24-.02-.41-.1-.89-.44-.8-1.71.15-2.02.1-.03.18-.04.37-.04.21,0,.25.02.41.09.41.2.63.54.63.99,0,.32-.11.59-.34.8Zm.16-4.83c-.3.46-.96.61-1.43.34-.56-.32-.73-1.03-.37-1.57.11-.17.24-.28.44-.37.25-.12.48-.14.77-.06.46.13.77.55.77,1.05,0,.24-.05.41-.18.61Zm2.55,2.45c-.42.45-1.12.46-1.56.02-.22-.22-.31-.45-.31-.78,0-.68.64-1.19,1.31-1.05.32.07.61.3.76.6.08.16.09.19.1.42.01.35-.06.55-.29.8Z"/>
  </g>
  <g>
    <path class="cls-2" d="m960.22,1803.23s-.84,6.39-7.42,5.95c-6.58-.43-6.65-7.71-6.65-7.71,0,0-.15-10.49,1.13-13.21,1.15-2.45,5.13-2.66,5.9-2.67.09,0,.13,0,.13,0,0,0,.06,0,.16,0,.82.02,4.63.28,5.96,2.79,1.83,6.2.8,14.85.8,14.85Z"/>
    <path class="cls-1" d="m953.47,1785.58v12.53c0,.05-.04.1-.1.1h-.1c-.05,0-.1-.04-.1-.1v-12.53c.09,0,.13,0,.13,0,0,0,.06,0,.16,0Z"/>
    <rect class="cls-1" x="952.11" y="1787.9" width="2.44" height="4.28" rx="1.22" ry="1.22"/>
    <rect class="cls-1" x="952.41" y="1788.2" width="1.84" height="3.69" rx=".92" ry=".92"/>
  </g>
  <g>
    <rect class="cls-2" x="908.42" y="1781.19" width="5.29" height="27.32" transform="translate(-1002.31 1169.92) rotate(-45)"/>
    <rect class="cls-2" x="908.42" y="1781.19" width="5.29" height="27.32" transform="translate(1536 -118.52) rotate(45)"/>
  </g>
</svg>