<?xml version="1.0" encoding="UTF-8"?>
<svg id="WorkSpace" xmlns="http://www.w3.org/2000/svg" viewBox="0 0 20 20">
  <defs>
    <style>
      .cls-1 {
        fill: #fff;
        stroke-width: 0px;
      }
    </style>
  </defs>
  <path class="cls-1" d="m10,19.9c1.37,0,2.47-1.11,2.47-2.47h-4.95c0,1.37,1.11,2.47,2.47,2.47Zm8.33-5.79c-.75-.8-2.14-2.01-2.14-5.96,0-3-2.11-5.41-4.95-6v-.81c0-.68-.55-1.24-1.24-1.24s-1.24.55-1.24,1.24v.81c-2.84.59-4.95,2.99-4.95,6,0,3.95-1.4,5.16-2.14,5.96-.23.25-.33.55-.33.84,0,.63.5,1.24,1.24,1.24h14.84c.74,0,1.24-.6,1.24-1.24,0-.29-.1-.59-.33-.84Z"/>
</svg>