<?xml version="1.0" encoding="UTF-8"?>
<svg id="Capa_2" data-name="Capa 2" xmlns="http://www.w3.org/2000/svg" viewBox="0 0 378.55 378.56">
  <defs>
    <style>
      .cls-1 {
        fill: #969696;
      }

      .cls-1, .cls-2, .cls-3 {
        stroke-width: 0px;
      }

      .cls-1, .cls-3 {
        fill-rule: evenodd;
      }

      .cls-2, .cls-3 {
        fill: #fff;
      }
    </style>
  </defs>
  <g id="Ficha_de_juego" data-name="Ficha de juego">
    <path class="cls-1" d="m378.55,189.28c0,55.8-24.15,105.97-62.57,140.61-33.55,30.25-77.98,48.67-126.7,48.67s-91.98-17.93-125.37-47.48C24.71,296.41,0,245.73,0,189.28,0,84.75,84.74,0,189.28,0s189.27,84.75,189.27,189.28Z"/>
    <path class="cls-3" d="m315.98,329.89c-33.55,30.25-77.98,48.67-126.7,48.67s-91.98-17.93-125.37-47.48c27.19-65.78,84.14-80.01,84.14-80.01,50.04,24.85,82.72,0,82.72,0,56.5,19.02,78.99,63.54,85.21,78.82Z"/>
    <circle class="cls-2" cx="189.28" cy="174.64" r="70.64"/>
  </g>
</svg>