<?xml version="1.0" encoding="UTF-8"?>
<svg id="Capa_2" data-name="Capa 2" xmlns="http://www.w3.org/2000/svg" viewBox="0 0 14 18">
  <defs>
    <style>
      .cls-1, .cls-2 {
        fill: #fff;
        stroke-width: 0px;
      }

      .cls-2 {
        fill-rule: evenodd;
      }
    </style>
  </defs>
  <g id="Panel_de_admin." data-name="Panel de admin.">
    <g>
      <path class="cls-1" d="m10,0c.55,0,1,.45,1,1h2c.55,0,1,.45,1,1s-.45,1-1,1H1c-.55,0-1-.45-1-1s.45-1,1-1h2c0-.55.45-1,1-1h6Z"/>
      <path class="cls-2" d="m1,4h12v12c0,1.1-.9,2-2,2H3c-1.1,0-2-.9-2-2V4Zm3.5,2c-.28,0-.5.22-.5.5v9c0,.28.22.5.5.5s.5-.22.5-.5V6.5c0-.28-.22-.5-.5-.5Zm5,0c-.28,0-.5.22-.5.5v9c0,.28.22.5.5.5s.5-.22.5-.5V6.5c0-.28-.22-.5-.5-.5Z"/>
    </g>
  </g>
</svg>