<?xml version="1.0" encoding="UTF-8"?>
<svg id="Capa_2" data-name="Capa 2" xmlns="http://www.w3.org/2000/svg" viewBox="0 0 19.96 19.94">
  <defs>
    <style>
      .cls-1 {
        fill: #fff;
        stroke-width: 0px;
      }
    </style>
  </defs>
  <g id="Ficha_de_juego" data-name="Ficha de juego">
    <g id="Pestaña_Críticas" data-name="Pestaña Críticas">
      <path class="cls-1" d="m19.95,18.19v1.75H5.95s1.96-1.75,1.96-1.75h12.04ZM16.81,0C17.49,0,17.85.05,18.79.84c.95.8,1.13,1.42,1.17,2.12.04.75-.21,1.65-.91,2.36l-13.3,13.3c-.22.2-.26.19-.41.23l-4.26,1.06c-.61.12-1.19-.44-1.06-1.06l1.06-4.26c.04-.14.06-.22.23-.41C5.76,9.74,10.13,5.2,14.67.84c.59-.56,1.46-.84,2.14-.84h0ZM3.34,14.64l-.61.61-.65,2.61,2.61-.65c.21-.2.41-.41.62-.61l-1.96-1.96h0ZM15.89,6.08l-2-2L4.53,13.44l1.96,1.96c3.14-3.1,6.32-6.16,9.4-9.32Zm1.18-1.22c.26-.27.51-.54.77-.81.7-.76.18-2.27-.96-2.32-.02,0-.05,0-.07,0-.36,0-.71.15-.96.41l-.75.75,1.98,1.98Z"/>
    </g>
  </g>
</svg>