<?xml version="1.0" encoding="UTF-8"?>
<svg id="Capa_2" data-name="Capa 2" xmlns="http://www.w3.org/2000/svg" viewBox="0 0 131.92 27.57">
  <defs>
    <style>
      .cls-1, .cls-2 {
        stroke-width: 0px;
      }

      .cls-2 {
        fill: #fff;
      }
    </style>
  </defs>
  <g id="WorkSpace">
    <g>
      <path class="cls-1" d="m5.52,5.64l-3.14,4.19v3.71l2.66,2.34,3.26,1.25.98,1.65,1.84.56h2.26l1.77-1.29.52-1.77,2.98-.08,1.17.6.66,1.65.95,1.17h2.34l1.09-.89,1.53-.89,5.24-2.5,1.26-2.04.67-2.96-.44-1.78-2.5-2.62-1.73-.93s-2.06.64-2.18.89-2.55,2.18-2.55,2.18l-12.73.25-1.65-1.74-3-2.06-1.27,1.09Z"/>
      <path class="cls-2" d="m34.51,12.97c-.27-3.01-.28-3.1-.48-3.77-.24-.82-.47-1.37-.78-1.84-.26-.39-.93-1-1.72-1.55l-.3-.22-.03-.15c-.02-.08-.07-.32-.13-.53-.26-1.05-.56-1.52-1.13-1.8-.37-.18-.95-.33-1.66-.43-.38-.05-1.18-.05-1.48.01-.28.05-.62.17-.79.27-.26.16-.58.5-.91.99-.2.31-.27.46-.37.81-.08.29-.21,1.03-.21,1.17v.08h-14.21v-.08c0-.29-.22-1.31-.34-1.59-.09-.21-.47-.76-.69-.99-.34-.37-.65-.54-1.19-.66-.29-.06-.99-.09-1.34-.05-.33.04-.73.11-1.05.18-.68.16-1.04.33-1.35.66-.23.24-.5.93-.67,1.69-.05.21-.09.4-.09.4,0,0-.15.11-.32.23-.87.62-1.51,1.21-1.78,1.66-.28.46-.53,1.07-.75,1.87-.16.59-.16.55-.43,3.62C.06,15.74,0,16.85,0,18.77c0,1.49.03,2.39.11,3.01.1.76.37,1.34.85,1.85.64.67,1.3,1.05,2.14,1.23.39.08,1.13.08,1.44,0,.44-.12.88-.37,1.36-.79.66-.57,1.17-1.33,1.94-2.92.18-.38.4-.82.48-.98.1-.19.19-.34.3-.46.09-.1.23-.27.31-.37l.15-.2.28.23c.63.51.94.66,1.66.81.34.07,1,.08,1.33.03.74-.13,1.39-.37,1.93-.73.47-.31.75-.67,1.12-1.43l.2-.4h3.62l.2.4c.37.76.66,1.12,1.12,1.43.54.36,1.19.6,1.93.73.32.06.99.04,1.33-.03.72-.15,1.03-.3,1.66-.81l.28-.23.15.2c.08.11.21.27.3.36.17.19.22.28.71,1.29.83,1.7,1.31,2.45,1.98,3.04.48.43.96.71,1.41.83.31.08,1.05.08,1.44,0,.84-.18,1.5-.56,2.14-1.23.48-.51.75-1.1.85-1.85.08-.62.11-1.52.11-3.01,0-1.92-.06-3.03-.32-5.8ZM5.22,7.1h2.07v1.52l-.15.19c-.25.3-.64.68-.76.75l-.12.06-.12-.06c-.14-.07-.44-.36-.72-.69l-.2-.23v-1.53Zm-.47,4.14h-1.54v-1.02c0-.56,0-1.03.02-1.03,0-.01.35-.02.76-.02h.74l.2.16c.44.35.78.74.78.88,0,.13-.31.48-.76.86l-.2.17Zm2.53,1.32v.76h-2.05v-.76s-.01-.76-.01-.76l.18-.21c.27-.32.44-.49.62-.63.17-.13.26-.15.38-.07.15.09.35.29.62.6l.27.31v.76Zm1.25-1.33h-.76s-.15-.11-.15-.11c-.24-.18-.66-.6-.75-.73-.04-.07-.08-.16-.08-.2,0-.15.37-.55.84-.92l.14-.11h.75s.75.01.75.01v2.04h-.76Zm5.6,5.91c-.18.63-.53,1.12-1.05,1.46-.43.28-.84.4-1.37.4-.51,0-.93-.12-1.35-.4-.96-.63-1.36-1.81-.99-2.9.12-.37.28-.62.59-.92.38-.39.76-.59,1.27-.7.25-.06.74-.06,1,0,.6.12,1.17.49,1.52.98.16.22.32.57.4.84.09.33.09.92,0,1.24Zm9.43,1.8c-.34.08-.83.08-1.16,0-.59-.14-1.12-.51-1.46-.99-.22-.32-.34-.6-.41-.98-.05-.23-.04-.73.01-.97.21-.96.96-1.7,1.95-1.93.21-.05.75-.05.97,0,.82.17,1.49.71,1.81,1.46.6,1.42-.21,3.04-1.71,3.41Zm3.11-8.2c-.09.28-.25.49-.48.65-.23.16-.42.22-.72.23-.3,0-.5-.06-.74-.21-.66-.45-.74-1.39-.18-1.95.17-.17.36-.28.58-.34.2-.06.56-.04.77.04.35.13.66.46.77.8.07.22.07.57,0,.78Zm2.75,3.26c-.27.25-.54.34-.94.33-.24,0-.28-.02-.47-.11-1.04-.51-.94-2,.17-2.36.12-.04.21-.05.43-.04.25,0,.3.02.48.11.48.23.74.63.74,1.15,0,.38-.13.69-.4.93Zm.18-5.64c-.35.53-1.12.71-1.67.39-.65-.38-.85-1.2-.43-1.83.13-.2.28-.33.52-.44.3-.14.56-.16.9-.07.54.15.9.64.9,1.22,0,.28-.06.47-.21.72Zm2.97,2.86c-.49.53-1.3.54-1.82.02-.25-.25-.36-.53-.36-.91,0-.79.75-1.39,1.53-1.23.37.08.71.35.88.7.1.19.1.23.11.49.02.41-.07.65-.34.93Z"/>
    </g>
    <g>
      <path class="cls-2" d="m131.58,20.59s-.98,7.46-8.67,6.95c-7.68-.51-7.76-9-7.76-9,0,0-.17-12.24,1.32-15.42C117.82.26,122.45.02,123.36,0c.1,0,.16,0,.16,0,0,0,.06,0,.18,0,.96.03,5.4.32,6.95,3.26,2.14,7.23.93,17.33.93,17.33Z"/>
      <path class="cls-1" d="m123.7,0v14.63c0,.06-.05.11-.11.11h-.11c-.06,0-.11-.05-.11-.11V0c.1,0,.16,0,.16,0,0,0,.06,0,.18,0Z"/>
      <rect class="cls-1" x="122.11" y="2.71" width="2.85" height="5" rx="1.22" ry="1.22"/>
      <rect class="cls-1" x="122.46" y="3.06" width="2.15" height="4.3" rx=".92" ry=".92"/>
    </g>
    <g>
      <path class="cls-2" d="m51.56,7.51h4.59s6.41-.24,11.58,5.62c5.33,6.04,10.22,10.88,16.14,11.18h4.53v3.2l8.44-5.3-8.42-5.4v3.26h-4.09s-5.06.3-11.41-7.58c-5.56-7.82-11.34-8.9-15.84-9.15-4.35.2-5.53,0-5.53,0v4.15Z"/>
      <path class="cls-2" d="m66.65,15.58l3.01,3.36c-4.49,4.34-8.93,5.08-12.55,5.28-4.35-.2-5.53,0-5.53,0v-4.15h4.6s5.55.21,10.48-4.48Z"/>
      <path class="cls-2" d="m88.44,10.75v-3.26h-4.09s-3.75-.22-8.83,4.73l-2.76-3.09c3.54-3.36,7.1-5.67,11.13-5.88h4.53V.05l8.44,5.3-8.42,5.4Z"/>
    </g>
  </g>
</svg>