<?xml version="1.0" encoding="UTF-8"?>
<svg id="Capa_2" data-name="Capa 2" xmlns="http://www.w3.org/2000/svg" viewBox="0 0 19.58 35.16">
  <defs>
    <style>
      .cls-1 {
        fill: #fff;
        stroke-width: 0px;
      }
    </style>
  </defs>
  <g id="Capa_1-2" data-name="Capa 1">
    <path class="cls-1" d="m10.9,0h-2.22C3.89,0,0,3.88,0,8.68v2.72c0,4.8,3.89,8.68,8.68,8.68h2.22c4.79,0,8.68-3.88,8.68-8.68v-2.72C19.58,3.88,15.69,0,10.9,0Zm2.58,11.77c0,1.91-1.55,3.46-3.45,3.46h-.47c-1.91,0-3.46-1.55-3.46-3.46v-3.55c0-1.91,1.55-3.46,3.46-3.46h.47c1.9,0,3.45,1.55,3.45,3.46v3.55Z"/>
    <path class="cls-1" d="m11.47,19.11l-2.77,8.83s-1.25,3.07,1.25,3.9c3.17.98,3.66-1.48,3.76-1.7s1.04-3.41,1.04-3.41l-2.95-.91,7.77-4.34-2.67,8.65s-1.39,6.65-7.82,4.67c0,0-5.43-1.46-3.41-8l2.73-8.57,3.07.89Z"/>
  </g>
</svg>