<?xml version="1.0" encoding="UTF-8"?>
<svg id="Capa_2" data-name="Capa 2" xmlns="http://www.w3.org/2000/svg" viewBox="0 0 16.74 16.38">
  <defs>
    <style>
      .cls-1 {
        fill: #999;
        fill-rule: evenodd;
        stroke-width: 0px;
      }
    </style>
  </defs>
  <g id="Ficha_de_juego" data-name="Ficha de juego">
    <g id="Pestaña_Críticas" data-name="Pestaña Críticas">
      <path class="cls-1" d="m.71,6.76c-.22-.25-.35-.58-.35-.94,0-.53.29-.99.71-1.25-.22-.25-.35-.58-.35-.94,0-.53.29-.99.71-1.25-.22-.25-.35-.58-.35-.94,0-.8.65-1.46,1.46-1.46h8.52c.58.03,1.1.31,1.45.73h2.41c1,0,1.82,1.96,1.82,4.37s-.81,4.37-1.82,4.37h-3.05l-2.77,4v1.82c-.2,1.19-1.09,1.09-1.09,1.09-.8,0-1.09-.36-1.09-.36-1.09-1.09-1.09-2.91-1.09-2.91,0-2.4,1.09-3.64,1.09-3.64H1.46c-.8,0-1.46-.65-1.46-1.46,0-.53.29-.99.71-1.25Zm14.2,1.98c.28,0,1.09-1.25,1.09-3.64s-.81-3.64-1.09-3.64h-2.03c.02.07.04.14.06.22.22,1.05.52,2.76.52,4.15,0,1.47-.8,2.51-1.09,2.91h0,2.55Zm-13.46,0h7.07l-1.07,1.21s-.91,1.09-.91,3.15c0,.02.02,1.54.88,2.4l.04.04c.24.15.58.11.58.11.19,0,.28-.25.32-.43v-1.98l3.41-4.93.04-.06c.3-.41.91-1.26.91-2.43,0-1.35-.32-3.09-.51-4.03-.1-.59-.6-1.03-1.2-1.06H2.55c-.4,0-.73.32-.73.72,0,.21.1.37.18.47l.56.66-.74.44c-.23.13-.36.37-.36.62,0,.21.1.37.18.47l.56.66-.74.44c-.22.13-.36.37-.36.62,0,.21.1.37.18.47l.56.66-.74.44c-.23.13-.36.37-.36.62,0,.4.33.73.73.73ZM14.37,2.18c.3,0,.55.24.55.55s-.24.55-.55.55-.55-.24-.55-.55.24-.55.55-.55Z"/>
    </g>
  </g>
</svg>