<?xml version="1.0" encoding="UTF-8"?>
<svg id="Capa_2" data-name="Capa 2" xmlns="http://www.w3.org/2000/svg" viewBox="0 0 87.98 67.43">
  <defs>
    <style>
      .cls-1 {
        fill: #fff;
        stroke-width: 0px;
      }
    </style>
  </defs>
  <g id="Capa_41" data-name="Capa 41">
    <path class="cls-1" d="m62.09,6.76l-2.65-5.22c-.48-.94-1.45-1.54-2.51-1.54h-25.62c-1,0-1.92.53-2.43,1.39l-3.22,5.52c-.5.86-1.43,1.39-2.43,1.39H2.81c-1.55,0-2.81,1.26-2.81,2.81v53.51c0,1.55,1.26,2.81,2.81,2.81h82.36c1.55,0,2.81-1.26,2.81-2.81V11.11c0-1.55-1.26-2.81-2.81-2.81h-20.57c-1.06,0-2.03-.59-2.51-1.54Zm17.57,54.92H8.3c-1.55,0-2.81-1.26-2.81-2.81V16.36c0-1.55,1.26-2.81,2.81-2.81h18.18c1,0,1.92-.53,2.43-1.39l3.22-5.51c.5-.86,1.43-1.39,2.43-1.39h18.87c1.06,0,2.03.59,2.51,1.54l2.65,5.21c.48.94,1.45,1.54,2.51,1.54h18.58c1.55,0,2.81,1.26,2.81,2.81v42.51c0,1.55-1.26,2.81-2.81,2.81Z"/>
    <path class="cls-1" d="m43.79,17.89c-10.65,0-19.28,8.63-19.28,19.28s8.63,19.28,19.28,19.28,19.27-8.63,19.27-19.28-8.63-19.28-19.27-19.28Zm0,33.19c-7.69,0-13.92-6.23-13.92-13.91s6.23-13.91,13.92-13.91,13.91,6.23,13.91,13.91-6.23,13.91-13.91,13.91Z"/>
  </g>
</svg>