<?xml version="1.0" encoding="UTF-8"?>
<svg id="Capa_2" data-name="Capa 2" xmlns="http://www.w3.org/2000/svg" viewBox="0 0 25.66 25.67">
  <defs>
    <style>
      .cls-1 {
        fill: #848484;
        stroke-width: 0px;
      }
    </style>
  </defs>
  <g id="Panel_de_admin." data-name="Panel de admin.">
    <path class="cls-1" d="m25.2,10.72l-3.3-.54c-.19-.66-.46-1.3-.79-1.9l1.92-2.74c.16-.22.13-.52-.06-.72l-2.17-2.17c-.19-.19-.5-.22-.72-.06l-2.7,1.94c-.61-.34-1.25-.6-1.91-.8l-.58-3.28c-.05-.27-.28-.46-.55-.46h-3.07c-.27,0-.51.2-.55.47l-.53,3.27c-.67.19-1.31.46-1.92.79l-2.69-1.92c-.22-.16-.53-.13-.72.06l-2.17,2.17c-.19.19-.22.49-.06.71l1.9,2.71c-.34.61-.61,1.26-.8,1.93l-3.25.54c-.27.04-.47.28-.47.55v3.07c0,.27.19.5.46.55l3.25.58c.19.67.46,1.32.8,1.93l-1.92,2.69c-.16.22-.13.53.06.72l2.17,2.17c.19.19.49.22.71.06l2.72-1.9c.61.34,1.25.6,1.92.79l.54,3.27c.04.27.28.47.55.47h3.07c.27,0,.5-.19.55-.46l.58-3.29c.67-.2,1.31-.46,1.91-.8l2.74,1.92c.22.16.52.13.72-.06l2.17-2.17c.19-.19.22-.5.06-.72l-1.95-2.71c.33-.6.59-1.24.79-1.9l3.3-.58c.27-.05.46-.28.46-.55v-3.07c0-.27-.2-.51-.47-.55Zm-12.36,6.01c-2.16,0-3.91-1.75-3.91-3.91s1.75-3.91,3.91-3.91,3.91,1.75,3.91,3.91-1.75,3.91-3.91,3.91Z"/>
  </g>
</svg>