<?xml version="1.0" encoding="UTF-8"?>
<svg id="Capa_2" data-name="Capa 2" xmlns="http://www.w3.org/2000/svg" viewBox="0 0 129.02 29.5">
  <defs>
    <style>
      .cls-1 {
        fill: #fff;
        stroke-width: 0px;
      }
    </style>
  </defs>
  <g id="Capa_1-2" data-name="Capa 1">
    <path class="cls-1" d="m37.02,9.42h-2.21c-4.79,0-8.68,3.88-8.68,8.68v2.72c0,4.79,3.89,8.68,8.68,8.68h2.21c4.8,0,8.68-3.89,8.68-8.68v-2.72c0-4.8-3.88-8.68-8.68-8.68Zm2.59,11.77c0,1.91-1.55,3.46-3.46,3.46h-.47c-1.91,0-3.45-1.55-3.45-3.46v-3.55c0-1.91,1.54-3.46,3.45-3.46h.47c1.91,0,3.46,1.55,3.46,3.46v3.55Z"/>
    <polygon class="cls-1" points="0 29.01 6.96 29.01 6.96 17.84 17.04 17.84 17.04 29.01 23.94 29.01 23.94 2.08 16.98 2.08 16.98 12.99 6.94 12.99 6.94 2.08 0 2.08 0 29.01"/>
    <polygon class="cls-1" points="68.97 0 68.97 28.98 75.89 28.98 75.89 21.86 81 28.98 88.98 28.98 80.94 17.55 87.96 9 80.04 9 75.99 13.88 75.99 0 68.97 0"/>
    <path class="cls-1" d="m100.02,0v9.93c-.12-1.05-1.15-.96-1.15-.96h-6s-4.91.61-4.91,9.96,4.12,10.05,4.12,10.05h7.88l.48-1.09.51,1.09h6.03V0h-6.96Zm1.14,20.81c0,1.91-1.55,3.46-3.46,3.46h-.46c-1.91,0-3.46-1.55-3.46-3.46v-3.55c0-1.91,1.55-3.46,3.46-3.46h.46c1.91,0,3.46,1.55,3.46,3.46v3.55Z"/>
    <path class="cls-1" d="m110,0v28.98s6.03,0,6.03,0l.51-1.09.48,1.09h7.88s4.12-.38,4.12-10.05-4.91-9.96-4.91-9.96h-6s-1.06.09-1.15.96V0s-6.96,0-6.96,0Zm5.82,17.26c0-1.91,1.55-3.46,3.46-3.46h.46c1.91,0,3.46,1.55,3.46,3.46v3.55c0,1.91-1.55,3.46-3.46,3.46h-.46c-1.91,0-3.46-1.55-3.46-3.46v-3.55Z"/>
  </g>
</svg>