<?xml version="1.0" encoding="UTF-8"?>
<svg id="Capa_2" data-name="Capa 2" xmlns="http://www.w3.org/2000/svg" viewBox="0 0 28.65 28.69">
  <defs>
    <style>
      .cls-1 {
        fill: #fff;
        stroke-width: 0px;
      }
    </style>
  </defs>
  <g id="Ficha_de_juego" data-name="Ficha de juego">
    <g id="Pestaña_Precios" data-name="Pestaña Precios">
      <path class="cls-1" d="m28.61,16.38c-.47-1.48-1.81-2.71-3.54-3.72h.05c2.91,0,2.37-1.56,2.26-1.78-.09-.2-.76-2.49-5.46-3.86.86-1.72,1.63-3.54,1.38-4.23,0,0-.68,1.87-1.92,4.08-.28-.07-.57-.14-.88-.21-.76-.17-1.48-.27-2.13-.34-.24-.5-3.06-6.32-5.9-6.32-1.99,0-2.57,2.95-2.63,5.5-.47-.9-1.2-1.81-2.15-1.56-1.52.4-1.57,3.62-1.56,4.49-3.66.13-5.54.74-5.54.74l-.58.44c.48-.1,3.35-.64,6.17-.43.35,2.15.87,3.86,1.47,5.23-.72,1.08-4.24,6.65-2.19,8.58,1.1,1.02,3.13.76,5.72-.7-.78,1.25-.88,2.41.38,2.92,1.01.41,3.3-.76,4.15-1.22.44.74,2.61,4.25,4.01,4.7-.03-.05-2.17-2.65-3.43-5.17,1.66-1.33,2.89-2.65,3.77-3.86,1.81.11,9.23.37,8.57-3.28Zm-3.26-5.52c.49,1.3-.89,1.3-1.23,1.28-1.28-.65-2.71-1.2-4.11-1.66.19-.32.72-1.21,1.3-2.29,2.19.86,3.8,2.03,4.04,2.67Zm-13.06-6.11c1.57-3.67,4.14.31,4.84,1.5-3.22-.07-4.96.92-5.34,1.16.05-.95.21-1.86.5-2.66Zm-4,1.18c.75-.74,1.35.26,1.54.64.01.76.07,1.44.15,1.91-.84-.05-1.63-.07-2.36-.08-.03-.62.02-1.82.67-2.47Zm1.33,14.51c-4.18.76-2.23-3.37-1.44-4.89,1.6,2.99,3.43,3.87,3.74,4-.8.43-1.58.75-2.3.88Zm2.6,2.83c-.7-.35-.31-1.18-.06-1.59.51-.33,1.02-.7,1.56-1.12l1.17,2.13c-.53.29-1.91.96-2.67.58Zm3.39-1.04l-.95-1.97c2.77-.07,3.46-1.1,3.46-1.1,0,0-1.66.8-3.32.65h-.16c1.96-1.63,4.09-3.79,6.25-6.45l-.93-.67s-3.76,4.27-7.4,6.5c-4.22-2.49-4.84-8.28-4.93-9.93.45.03,1.36.1,2.16.21-1.35,2.35-.71,3.63-.71,3.63,0,0-.08-1.53,1.11-3.35.13.62,1.38,6.91,2.52,8.51l1.05-.39s-1.99-5.21-1.99-9.73c2.81-1.54,6.24-1.13,8.95-.18-.42.67-.88,1.35-1.4,1.99-.33-.47-1.3-1.77-2.29-1.99,0,0,1.26.92,1.88,2.17-3.4-1.01-6.38-1.44-6.38-1.44l-.1,1.16c3.54.73,6.92,1.89,9.29,3.25-.19,5.21-5.4,8.66-6.13,9.13Zm5.16-3.68c1.45-2.39,1.64-4.29,1.66-5.03,1.26.81,2.15,1.68,2.52,2.57,1.02,2.43-3.66,2.47-4.17,2.46Z"/>
    </g>
  </g>
</svg>