<?xml version="1.0" encoding="UTF-8"?>
<svg id="Capa_2" data-name="Capa 2" xmlns="http://www.w3.org/2000/svg" viewBox="0 0 24.68 28.69">
  <defs>
    <style>
      .cls-1 {
        fill: #fff;
        stroke-width: 0px;
      }
    </style>
  </defs>
  <g id="Ficha_de_juego" data-name="Ficha de juego">
    <g id="Pestaña_Precios" data-name="Pestaña Precios">
      <path class="cls-1" d="m10.71,5.3h-.8v4.02h1.25v-3.57c0-.25-.2-.45-.45-.45Zm0,0h-.8v4.02h1.25v-3.57c0-.25-.2-.45-.45-.45Zm0,0h-.8v4.02h1.25v-3.57c0-.25-.2-.45-.45-.45Zm0,0h-.8v4.02h1.25v-3.57c0-.25-.2-.45-.45-.45Zm0,0h-.8v4.02h1.25v-3.57c0-.25-.2-.45-.45-.45Zm0,0h-.8v4.02h1.25v-3.57c0-.25-.2-.45-.45-.45Zm-1.74,13.26l-.35.92h.7l-.35-.92Zm1.74-13.26h-.8v4.02h1.25v-3.57c0-.25-.2-.45-.45-.45Zm-1.74,13.26l-.35.92h.7l-.35-.92Zm1.74-13.26h-.8v4.02h1.25v-3.57c0-.25-.2-.45-.45-.45ZM23.04,0H1.65C.74,0,0,.73,0,1.64v20.81c0,.65.39,1.24,1,1.5l10.72,4.59c.42.18.88.18,1.3,0l10.67-4.59c.6-.26.99-.85.99-1.5V1.64c0-.91-.74-1.64-1.64-1.64Zm-6.91,5.34c0-.89.73-1.62,1.62-1.62h1.71c.89,0,1.62.72,1.62,1.62v2.67h-1.68v-2.39c0-.23-.19-.42-.42-.42h-.68c-.23,0-.41.19-.41.42v7.3c0,.27.22.5.49.5h.53c.27,0,.5-.23.5-.5v-2.63h1.68v2.82c0,.98-.8,1.78-1.78,1.78h-1.38c-.98,0-1.78-.8-1.78-1.78v-7.76Zm-2.51-1.56h1.72v11.02h-1.72V3.79Zm.11,13.67h.96v3.34h-.91v-1.9l-.86,1.26-.87-1.26v1.9h-.88v-3.34h.96l.78,1.3.81-1.3ZM8.2,3.79h2.88c1,0,1.8.8,1.8,1.79v3.46c0,.99-.8,1.79-1.8,1.79h-1.16v3.96h-1.72V3.79Zm-4.54,0h3.76v1.57h-2.09v3.09h1.97v1.55h-1.97v3.26h2.09v1.54h-3.76V3.79Zm3.2,16.52c-.34.38-.85.59-1.42.59-1.03,0-1.86-.78-1.86-1.76s.83-1.75,1.86-1.75c.51,0,.96.19,1.3.5l-.57.66c-.17-.21-.44-.35-.73-.35-.52,0-.94.42-.94.94s.42.94.94.94c.21,0,.39-.07.55-.17v-.37h-.68v-.68h1.03s.53,0,.53,0v1.45Zm1.7-2.85h.86l1.4,3.34h-.94l-.27-.62h-1.28l-.25.62h-.92l1.4-3.34Zm3.72,8.91l-4.67-1.64h9.55l-4.87,1.64Zm5.7-8.11h-1.78v.51h1.57v.74h-1.57v.52h1.78v.77h-2.65v-3.34h2.65v.79Zm1.48,2.61c-.62-.05-1.17-.56-1.17-.56l.49-.6c1.02.79,1.99.19,1.12-.09-1.14-.24-1.25-.54-1.34-.61-.09-.07-.3-.7.02-1.1.33-.4.88-.6,1.44-.51.56.09,1.02.45,1.02.45l-.46.63-.36-.17c-.67-.32-1-.01-.88.17.11.17.88.32.88.32,0,0,.91.08.91.98s-1.06,1.14-1.68,1.08ZM11.16,5.75c0-.25-.2-.45-.45-.45h-.8v4.02h1.25v-3.57Zm-2.19,12.8l-.35.92h.7l-.35-.92Zm1.74-13.26h-.8v4.02h1.25v-3.57c0-.25-.2-.45-.45-.45Zm-1.74,13.26l-.35.92h.7l-.35-.92Zm1.74-13.26h-.8v4.02h1.25v-3.57c0-.25-.2-.45-.45-.45Zm-1.74,13.26l-.35.92h.7l-.35-.92Zm1.74-13.26h-.8v4.02h1.25v-3.57c0-.25-.2-.45-.45-.45Zm0,0h-.8v4.02h1.25v-3.57c0-.25-.2-.45-.45-.45Zm0,0h-.8v4.02h1.25v-3.57c0-.25-.2-.45-.45-.45Zm0,0h-.8v4.02h1.25v-3.57c0-.25-.2-.45-.45-.45Zm0,0h-.8v4.02h1.25v-3.57c0-.25-.2-.45-.45-.45Zm0,0h-.8v4.02h1.25v-3.57c0-.25-.2-.45-.45-.45Z"/>
    </g>
  </g>
</svg>