<?xml version="1.0" encoding="UTF-8"?>
<svg id="Capa_2" data-name="Capa 2" xmlns="http://www.w3.org/2000/svg" viewBox="0 0 28.38 28.38">
  <defs>
    <style>
      .cls-1 {
        fill: rgba(255, 255, 255, 0);
      }

      .cls-1, .cls-2 {
        stroke-width: 0px;
      }

      .cls-2 {
        fill: #fff;
      }
    </style>
  </defs>
  <g id="WorkSpace">
    <g>
      <path class="cls-1" d="m15.37,6.91h-2.36c-.28,0-.5.22-.5.48v2.4c0,.26.22.48.5.48h2.36c.28,0,.5-.22.5-.48v-2.4c0-.26-.22-.48-.5-.48Zm0,0h-2.36c-.28,0-.5.22-.5.48v2.4c0,.26.22.48.5.48h2.36c.28,0,.5-.22.5-.48v-2.4c0-.26-.22-.48-.5-.48Zm-1.12,11.2h-2.36c-.28,0-.5.21-.5.48v2.39c0,.27.22.48.5.48h2.37c.27,0,.49-.21.49-.48v-2.39c0-.27-.22-.48-.5-.48Zm1.12-11.2h-2.36c-.28,0-.5.22-.5.48v2.4c0,.26.22.48.5.48h2.36c.28,0,.5-.22.5-.48v-2.4c0-.26-.22-.48-.5-.48Zm0,0h-2.36c-.28,0-.5.22-.5.48v2.4c0,.26.22.48.5.48h2.36c.28,0,.5-.22.5-.48v-2.4c0-.26-.22-.48-.5-.48Zm-1.12,11.2h-2.36c-.28,0-.5.21-.5.48v2.39c0,.27.22.48.5.48h2.37c.27,0,.49-.21.49-.48v-2.39c0-.27-.22-.48-.5-.48ZM.76.75v26.87h26.86V.75H.76Zm7.83,17.37h-3.97s-.01-.01-.01-.01c-.28,0-.5.21-.5.48v2.39c0,.27.22.48.5.48h3.98v1.68H3.72c-.72,0-1.29-.56-1.29-1.25v-4.21c0-.69.57-1.25,1.29-1.25h4.87v1.69Zm.56-4.62c0,.69-.58,1.25-1.29,1.25H2.43v-1.68h5.04v-5.68c0-.26-.22-.48-.49-.48h-2.37c-.28,0-.5.22-.5.48v2.4c0,.26.22.48.5.48h1.74v1.68h-2.63c-.72,0-1.29-.56-1.29-1.25v-4.22c0-.69.57-1.25,1.29-1.25h4.14c.71,0,1.29.56,1.29,1.25v7.02Zm7.28,8.39c0,.69-.58,1.25-1.29,1.25h-4.14c-.72,0-1.29-.56-1.29-1.25v-4.21c0-.69.57-1.25,1.29-1.25h4.14c.71,0,1.29.56,1.29,1.25v4.21Zm-.17-9.94h-4.14c-.72,0-1.29-.56-1.29-1.25v-4.22c0-.69.57-1.25,1.29-1.25h4.14c.71,0,1.29.56,1.29,1.25v4.22c0,.69-.58,1.25-1.29,1.25Zm9.68,11.19h-1.68v-5.03h-1.18c-.27,0-.49.21-.49.48v4.55h-1.68v-5.03h-1.12c-.28,0-.56.21-.56.47v4.56h-1.68v-5.47c0-.69.58-1.24,1.29-1.24h7.1v6.71Zm0-9.64c0,.69-.57,1.25-1.29,1.25h-5.42v-1.68h5.03v-5.68c0-.26-.22-.48-.49-.48h-2.37c-.27,0-.49.22-.49.48v2.4c0,.26.22.48.49.48h1.75v1.68h-2.64c-.71,0-1.28-.56-1.28-1.25v-4.22c0-.69.57-1.25,1.28-1.25h4.14c.72,0,1.29.56,1.29,1.25v7.02Zm-10.57-6.59h-2.36c-.28,0-.5.22-.5.48v2.4c0,.26.22.48.5.48h2.36c.28,0,.5-.22.5-.48v-2.4c0-.26-.22-.48-.5-.48Zm-1.12,11.2h-2.36c-.28,0-.5.21-.5.48v2.39c0,.27.22.48.5.48h2.37c.27,0,.49-.21.49-.48v-2.39c0-.27-.22-.48-.5-.48Zm1.12-11.2h-2.36c-.28,0-.5.22-.5.48v2.4c0,.26.22.48.5.48h2.36c.28,0,.5-.22.5-.48v-2.4c0-.26-.22-.48-.5-.48Zm0,0h-2.36c-.28,0-.5.22-.5.48v2.4c0,.26.22.48.5.48h2.36c.28,0,.5-.22.5-.48v-2.4c0-.26-.22-.48-.5-.48Zm0,0h-2.36c-.28,0-.5.22-.5.48v2.4c0,.26.22.48.5.48h2.36c.28,0,.5-.22.5-.48v-2.4c0-.26-.22-.48-.5-.48Zm0,0h-2.36c-.28,0-.5.22-.5.48v2.4c0,.26.22.48.5.48h2.36c.28,0,.5-.22.5-.48v-2.4c0-.26-.22-.48-.5-.48Z"/>
      <path class="cls-2" d="m15.37,6.91h-2.36c-.28,0-.5.22-.5.48v2.4c0,.26.22.48.5.48h2.36c.28,0,.5-.22.5-.48v-2.4c0-.26-.22-.48-.5-.48Zm0,0h-2.36c-.28,0-.5.22-.5.48v2.4c0,.26.22.48.5.48h2.36c.28,0,.5-.22.5-.48v-2.4c0-.26-.22-.48-.5-.48Zm-1.12,11.2h-2.36c-.28,0-.5.21-.5.48v2.39c0,.27.22.48.5.48h2.37c.27,0,.49-.22.49-.49v-2.38c0-.27-.22-.48-.5-.48Zm1.12-11.2h-2.36c-.28,0-.5.22-.5.48v2.4c0,.26.22.48.5.48h2.36c.28,0,.5-.22.5-.48v-2.4c0-.26-.22-.48-.5-.48Zm-1.12,11.2h-2.36c-.28,0-.5.21-.5.48v2.39c0,.27.22.48.5.48h2.37c.27,0,.49-.22.49-.49v-2.38c0-.27-.22-.48-.5-.48Zm1.12-11.2h-2.36c-.28,0-.5.22-.5.48v2.4c0,.26.22.48.5.48h2.36c.28,0,.5-.22.5-.48v-2.4c0-.26-.22-.48-.5-.48ZM0,3v22.38c0,1.66,1.34,3,3,3h22.38c1.66,0,3-1.34,3-3V3c0-1.66-1.34-3-3-3H3C1.34,0,0,1.34,0,3Zm6.98,3.91h-2.37c-.28,0-.5.22-.5.48v2.4c0,.26.22.48.5.48h1.74v1.68h-2.63c-.72,0-1.29-.56-1.29-1.25v-4.22c0-.69.57-1.25,1.29-1.25h4.14c.71,0,1.29.56,1.29,1.25v7.02c0,.69-.58,1.25-1.29,1.25H2.43v-1.68h5.04v-5.68c0-.26-.22-.48-.49-.48Zm-3.26,9.52h4.87v1.69h-3.97s-.01-.01-.01-.01c-.28,0-.5.21-.5.48v2.39c0,.27.21.48.48.48h4v1.68H3.72c-.72,0-1.29-.56-1.29-1.25v-4.21c0-.69.57-1.25,1.29-1.25Zm19.36,1.68c-.27,0-.49.22-.49.49v4.54h-1.68v-5.03h-1.12c-.28,0-.56.21-.56.47v4.56h-1.68v-5.47c0-.69.58-1.24,1.29-1.24h7.1v6.71h-1.68v-5.03h-1.18Zm-5.53-7.41c0,.69-.58,1.25-1.29,1.25h-4.14c-.72,0-1.29-.56-1.29-1.25v-4.22c0-.69.57-1.25,1.29-1.25h4.14c.71,0,1.29.56,1.29,1.25v4.22Zm-6.55,5.73h4.14c.71,0,1.29.56,1.29,1.25v4.21c0,.69-.58,1.25-1.29,1.25h-4.14c-.72,0-1.29-.56-1.29-1.25v-4.21c0-.69.57-1.25,1.29-1.25Zm14.94-2.93c0,.69-.57,1.25-1.29,1.25h-5.42v-1.68h5.03v-5.68c0-.27-.21-.48-.48-.48h-2.38c-.27,0-.49.22-.49.48v2.4c0,.26.22.48.49.48h1.75v1.68h-2.64c-.71,0-1.28-.56-1.28-1.25v-4.22c0-.69.57-1.25,1.28-1.25h4.14c.72,0,1.29.56,1.29,1.25v7.02Zm-10.57-6.59h-2.36c-.28,0-.5.22-.5.48v2.4c0,.26.22.48.5.48h2.36c.28,0,.5-.22.5-.48v-2.4c0-.26-.22-.48-.5-.48Zm-3.48,14.55h2.37c.27,0,.49-.22.49-.49v-2.38c0-.27-.22-.48-.5-.48h-2.36c-.28,0-.5.21-.5.48v2.39c0,.27.22.48.5.48Zm3.48-14.55h-2.36c-.28,0-.5.22-.5.48v2.4c0,.26.22.48.5.48h2.36c.28,0,.5-.22.5-.48v-2.4c0-.26-.22-.48-.5-.48Zm0,0h-2.36c-.28,0-.5.22-.5.48v2.4c0,.26.22.48.5.48h2.36c.28,0,.5-.22.5-.48v-2.4c0-.26-.22-.48-.5-.48Zm0,0h-2.36c-.28,0-.5.22-.5.48v2.4c0,.26.22.48.5.48h2.36c.28,0,.5-.22.5-.48v-2.4c0-.26-.22-.48-.5-.48Zm0,0h-2.36c-.28,0-.5.22-.5.48v2.4c0,.26.22.48.5.48h2.36c.28,0,.5-.22.5-.48v-2.4c0-.26-.22-.48-.5-.48Z"/>
    </g>
  </g>
</svg>