<?xml version="1.0" encoding="UTF-8"?>
<svg id="Capa_2" data-name="Capa 2" xmlns="http://www.w3.org/2000/svg" viewBox="0 0 31.1 28.69">
  <defs>
    <style>
      .cls-1 {
        fill: #fff;
        stroke-width: 0px;
      }
    </style>
  </defs>
  <g id="Ficha_de_juego" data-name="Ficha de juego">
    <g id="Pestaña_Precios" data-name="Pestaña Precios">
      <g>
        <path class="cls-1" d="m4.05.18C2.7.98.03,4.05,0,4.85v1.34c0,1.69,1.58,3.17,3.01,3.17,1.72,0,3.16-1.43,3.16-3.12,0,1.69,1.38,3.12,3.11,3.12s3.06-1.43,3.06-3.12c0,1.69,1.47,3.12,3.19,3.12h.03c1.73,0,3.2-1.43,3.2-3.12,0,1.69,1.34,3.12,3.06,3.12s3.11-1.43,3.11-3.12c0,1.69,1.43,3.12,3.15,3.12,1.44,0,3.02-1.49,3.02-3.17v-1.34c-.03-.8-2.7-3.87-4.06-4.68-4.22-.15-7.14-.18-11.49-.18C11.2,0,5.26.07,4.06.18h0Z"/>
        <path class="cls-1" d="m28.73,16.36c0-.58,0-.99,0-1.51h0c-.02-1.01-.08-2.39-.21-3.83-.1.03-.22.07-.34.07h0c-.98,0-1.87-.4-2.53-1.03-.24-.24-.46-.48-.62-.77-.17.29-.35.53-.58.77-.64.63-1.54,1.03-2.53,1.03s-1.87-.4-2.52-1.03c-.23-.22-.44-.49-.6-.77v-.02c-.17.3-.38.56-.61.79-.65.63-1.54,1.03-2.52,1.03h0s-.07,0-.1,0c-.04,0-.08,0-.11,0h0c-.98,0-1.87-.4-2.52-1.03-.23-.22-.43-.49-.59-.77-.18.3-.38.54-.61.77-.65.63-1.54,1.03-2.53,1.03s-1.88-.4-2.53-1.03c-.23-.23-.41-.48-.58-.77-.16.29-.39.53-.62.77-.65.63-1.54,1.03-2.53,1.03-.12,0-.24-.04-.34-.07-.14,1.44-.2,2.82-.22,3.82h0c0,.52,0,.93,0,1.52.03,3.03-.3,9.8,1.34,11.47,2.53.59,7.18.86,11.84.86h0c4.67,0,9.32-.27,11.85-.86,1.63-1.66,1.3-8.43,1.33-11.47Zm-4.24,9.28c-2.63-.1-4.09-2.01-4.09-3.93-1.46.24-3.16.36-4.86.36s-3.4-.12-4.86-.36c0,1.91-1.46,3.83-4.08,3.93-1.78,0-3.21-.1-2.13-3.97l1.46-5.22c1.35-3.8,3.29-3.8,3.78-3.8h0c1.02,0,1.93,0,3.07,1.23.88-.1,1.82-.14,2.75-.14s1.87.04,2.75.14c1.14-1.23,2.05-1.23,3.07-1.23h0c.49,0,2.43,0,3.78,3.8l1.45,5.22c1.08,3.88-.34,3.97-2.11,3.97Z"/>
        <path class="cls-1" d="m15.55,15.63s-2.77,2.55-3.27,3.45l1.81-.07v1.58c0,.08.73.05,1.46.01.73.03,1.45.07,1.45-.01v-1.58l1.82.07c-.5-.9-3.27-3.45-3.27-3.45Z"/>
      </g>
    </g>
  </g>
</svg>