<?xml version="1.0" encoding="UTF-8"?>
<svg id="Capa_2" data-name="Capa 2" xmlns="http://www.w3.org/2000/svg" viewBox="0 0 28.44 28.44">
  <defs>
    <style>
      .cls-1 {
        fill: #fff;
        stroke-width: 0px;
      }
    </style>
  </defs>
  <g id="Ficha_de_juego" data-name="Ficha de juego">
    <g id="Pestaña_Precios" data-name="Pestaña Precios">
      <g>
        <path class="cls-1" d="m21.17,0h-4.46c-.09,0-.19.09-.19.19v28.09c0,.07.09.17.28.17h4.36c3.98,0,7.28-3.29,7.28-7.28V7.3c0-4.01-3.29-7.3-7.28-7.3Zm1.07,18.49c-1.61,0-2.84-1.26-2.84-2.84-.09-1.59,1.23-2.84,2.84-2.84s2.82,1.33,2.82,2.84c0,1.61-1.33,2.84-2.82,2.84Z"/>
        <path class="cls-1" d="m9.77,8.53c0,1.52-1.14,2.65-2.65,2.65s-2.65-1.14-2.65-2.65,1.14-2.68,2.65-2.68,2.65,1.16,2.65,2.68Z"/>
        <path class="cls-1" d="m13.51,0h-6.23C3.29,0,0,3.29,0,7.28v13.87c0,4.01,3.29,7.3,7.28,7.3h6.23c.09,0,.17-.09.17-.17V.17c.02-.07-.07-.17-.17-.17Zm-6.23,26.14c-2.75,0-4.98-2.23-4.98-4.98V7.3c0-2.77,2.23-5,4.98-5h4.1l.09,23.84h-4.2Z"/>
        <path class="cls-1" d="m9.77,8.53c0,1.52-1.14,2.65-2.65,2.65s-2.65-1.14-2.65-2.65,1.14-2.68,2.65-2.68,2.65,1.16,2.65,2.68Z"/>
        <path class="cls-1" d="m9.77,8.53c0,1.52-1.14,2.65-2.65,2.65s-2.65-1.14-2.65-2.65,1.14-2.68,2.65-2.68,2.65,1.16,2.65,2.68Z"/>
      </g>
    </g>
  </g>
</svg>