<?xml version="1.0" encoding="UTF-8"?>
<svg id="Capa_2" data-name="Capa 2" xmlns="http://www.w3.org/2000/svg" viewBox="0 0 28.69 28.69">
  <defs>
    <style>
      .cls-1 {
        fill: #fff;
        fill-rule: evenodd;
        stroke-width: 0px;
      }
    </style>
  </defs>
  <g id="Ficha_de_juego" data-name="Ficha de juego">
    <g id="Pestaña_Precios" data-name="Pestaña Precios">
      <path class="cls-1" d="m24.49,4.2C21.89,1.61,18.3,0,14.34,0S6.8,1.61,4.2,4.2C1.61,6.8,0,10.38,0,14.34c0,7.92,6.42,14.34,14.34,14.34,3.96,0,7.55-1.61,10.14-4.2,2.6-2.6,4.2-6.18,4.2-10.14s-1.61-7.55-4.2-10.14Zm-13.26,12.99l-3.33,1.19c-.59.21-.68.51-.2.67.48.16,1.34.11,1.93-.1l1.6-.58v1.68c-.1.02-.21.04-.32.05-1.6.26-3.3.15-4.97-.4h0c-1.56-.44-1.82-1.36-1.11-1.88.66-.49,1.78-.85,1.78-.85l4.62-1.64v1.87Zm3.85-7.17v11.95l-3.22-1.02V6.71c1.37.25,3.37.86,4.44,1.22,2.73.94,3.65,2.1,3.65,4.73s-1.58,3.53-3.59,2.56v-4.77c0-.56-.1-1.08-.63-1.22-.4-.13-.65.24-.65.8Zm8.99,8.37c-.39.49-1.33.84-1.33.84l-7.04,2.53v-1.87l5.18-1.85c.59-.21.68-.51.2-.67-.48-.16-1.34-.11-1.93.1l-3.45,1.22v-1.94l.2-.07s1-.35,2.4-.51c1.4-.15,3.12.02,4.47.53,1.52.48,1.69,1.19,1.31,1.68Z"/>
    </g>
  </g>
</svg>