<?xml version="1.0" encoding="UTF-8"?>
<svg id="Capa_2" data-name="Capa 2" xmlns="http://www.w3.org/2000/svg" viewBox="0 0 28.38 28.44">
  <defs>
    <style>
      .cls-1 {
        fill: #fff;
        stroke-width: 0px;
      }
    </style>
  </defs>
  <g id="Ficha_de_juego" data-name="Ficha de juego">
    <g id="Pestaña_Precios" data-name="Pestaña Precios">
      <g>
        <path class="cls-1" d="m11.86,19.29c0-.9-.53-1.67-1.29-2.02-.05-.02-.09-.05-.15-.06l-1.5-.62c.29-.1.6-.16.93-.16,1.61,0,2.91,1.3,2.91,2.91s-1.3,2.91-2.91,2.91c-1.11,0-2.08-.63-2.57-1.55l1.31.55s.02,0,.02,0l.34.15h0c.22.07.45.11.69.11,1.22,0,2.22-.99,2.22-2.22Z"/>
        <path class="cls-1" d="m18.58,7.13c-1.9,0-3.43,1.53-3.43,3.43s1.53,3.43,3.43,3.43,3.43-1.53,3.43-3.43-1.53-3.43-3.43-3.43Zm-.04,6.11c-1.46,0-2.63-1.18-2.63-2.64s1.17-2.63,2.63-2.63,2.64,1.17,2.64,2.63-1.18,2.64-2.64,2.64Z"/>
        <path class="cls-1" d="m28.38,14.22c0,7.85-6.37,14.22-14.22,14.22-6.63,0-12.2-4.53-13.77-10.67l5.69,2.37c.38,1.76,1.95,3.08,3.83,3.08,2.16,0,3.92-1.75,3.92-3.92,0-.05,0-.09,0-.14l4.68-3.4h.08c2.87,0,5.19-2.33,5.19-5.2s-2.33-5.19-5.19-5.19-5.19,2.33-5.19,5.19v.05l-3.33,4.78s-.1,0-.15,0c-.81,0-1.55.24-2.17.66L0,12.9C.67,5.66,6.75,0,14.16,0c7.85,0,14.22,6.37,14.22,14.22Z"/>
      </g>
    </g>
  </g>
</svg>