<?xml version="1.0" encoding="UTF-8"?>
<svg id="Capa_2" data-name="Capa 2" xmlns="http://www.w3.org/2000/svg" viewBox="0 0 27.64 28.69">
  <defs>
    <style>
      .cls-1 {
        fill: #fff;
        stroke-width: 0px;
      }
    </style>
  </defs>
  <g id="Ficha_de_juego" data-name="Ficha de juego">
    <g id="Pestaña_Precios" data-name="Pestaña Precios">
      <path class="cls-1" d="m.26,7.92c.33.25.79.57,1.12.81-.56,1.16-.94,2.39-1.17,3.66-.14.82-.22,1.65-.22,2.47,0,7.63,6.19,13.82,13.83,13.82s13.81-6.18,13.81-13.82v-.54C27.33-.36,7.78-5.85.26,7.92Zm3.14,8.87c-.18,1.48-.06,1.95-.06,2.14l-.33.11c-.13-.24-.44-1.11-.59-2.27-.37-4.45,2.67-8.45,7.29-9.2,4.23-.62,8.3,2.01,9.24,5.69l-.33.12c-.11-.11-.27-.41-.92-1.05-5.12-5.12-13.16-2.77-14.3,4.47Zm13.15,2.49c-.71,1.02-1.85,1.63-3.1,1.61-2.08.01-3.77-1.67-3.77-3.75h0c0-1.98,1.53-3.62,3.5-3.78,1.21-.05,2.35.61,2.88,1.67.59,1.17.37,2.59-.54,3.53.35.25.68.48,1.02.72Zm7.87.14c-2,4.52-6.1,6.89-10.48,6.83-8.4-.42-10.85-10.11-5.24-13.62l.25.24c-.1.13-.43.39-.94,1.42-.61,1.24-.8,2.49-.73,3.26.44,6.78,9.95,8.16,13.21,1.45C24.65,9.83,13.6.48,3.81,7.61l-.23-.22C6.17,3.36,11.21,1.55,16.02,2.76c7.34,1.85,11.3,9.5,8.4,16.66Z"/>
    </g>
  </g>
</svg>