<?xml version="1.0" encoding="UTF-8"?>
<svg id="Capa_2" data-name="Capa 2" xmlns="http://www.w3.org/2000/svg" viewBox="0 0 28.67 28.69">
  <defs>
    <style>
      .cls-1 {
        fill: #fff;
        stroke-width: 0px;
      }
    </style>
  </defs>
  <g id="Ficha_de_juego" data-name="Ficha de juego">
    <g id="Pestaña_Precios" data-name="Pestaña Precios">
      <g>
        <path class="cls-1" d="m12.91,28.63c-2.21-.21-4.44-1-6.37-2.26-1.61-1.05-1.97-1.48-1.97-2.34,0-1.73,1.9-4.76,5.16-8.22,1.85-1.96,4.42-4.26,4.7-4.2.54.12,4.87,4.34,6.49,6.33,2.56,3.14,3.74,5.72,3.14,6.86-.45.87-3.28,2.58-5.35,3.23-1.71.54-3.95.77-5.8.59Z"/>
        <path class="cls-1" d="m2.39,22.23C1.06,20.18.38,18.16.05,15.23c-.11-.96-.07-1.52.24-3.5.39-2.47,1.8-5.32,3.49-7.08.72-.75.78-.77,1.66-.47,1.06.36,2.2,1.15,3.96,2.74l1.03.93-.56.69c-2.61,3.2-5.36,7.74-6.4,10.55-.56,1.53-.79,3.06-.55,3.7.16.43.01.27-.54-.57h0Z"/>
        <path class="cls-1" d="m25.87,22.58c.13-.65-.03-1.83-.43-3.02-.85-2.59-3.68-7.4-6.29-10.67l-.82-1.03.89-.81c1.16-1.06,1.96-1.7,2.83-2.24.68-.43,1.66-.8,2.08-.8.26,0,1.17.95,1.91,1.98,1.14,1.6,1.98,3.54,2.41,5.56.27,1.31.3,4.1.04,5.4-.21,1.07-.65,2.45-1.08,3.39-.32.7-1.12,2.07-1.47,2.52q-.18.23-.08-.27h0Z"/>
        <path class="cls-1" d="m13.14,3.5c-1.2-.61-3.06-1.26-4.08-1.44-.36-.06-.97-.1-1.36-.08-.85.04-.81,0,.55-.64,1.13-.53,2.07-.85,3.34-1.11,1.43-.3,4.13-.3,5.54,0,1.52.32,3.32.99,4.33,1.61l.3.18-.69-.03c-1.37-.07-3.37.48-5.52,1.53-.65.32-1.21.57-1.25.56-.04,0-.57-.26-1.17-.57h0Z"/>
      </g>
    </g>
  </g>
</svg>